<svg width="26" height="26" viewBox="0 0 26 26" fill="none" xmlns="http://www.w3.org/2000/svg">
<path d="M0 3.25V17.875H6.5H17.875H19.5V3.25H0ZM17.875 14.625L13 8.125L7.9625 14.4625L4.875 11.375L1.625 14.625V4.875H17.875V14.625Z" fill="white"/>
<path d="M4.875 9.75C5.77246 9.75 6.5 9.02246 6.5 8.125C6.5 7.22754 5.77246 6.5 4.875 6.5C3.97754 6.5 3.25 7.22754 3.25 8.125C3.25 9.02246 3.97754 9.75 4.875 9.75Z" fill="white"/>
<path d="M22.75 21.125V4.875H21.125V19.6625H1.625V21.125H22.75Z" fill="white"/>
<path d="M24.375 8.125V22.9125H4.875V24.375H26V8.125H24.375Z" fill="white"/>
</svg>
